<?xml version="1.0" encoding="UTF-8"?>
<svg id="Capa_2" data-name="Capa 2" xmlns="http://www.w3.org/2000/svg" viewBox="0 0 850.32 585.16">
  <defs>
    <style>
      .cls-1 {
        fill: #fff;
      }

      .cls-2 {
        fill: #d90000;
      }
    </style>
  </defs>
  <g id="Capa_1-2" data-name="Capa 1">
    <g>
      <path class="cls-1" d="m850.32,261.05c.06,4.41-3.5,8.02-7.9,8.02h-3.84c-5.5-20.97-18.18-33.82-25.91-40h27.74c5.23.03,9.48,4.23,9.56,9.46l.35,22.52Z"/>
      <g>
        <path class="cls-2" d="m418.2,228.87v245.63h74.4v-245.63h-74.4Zm54.68,241h-33.2v-114.7h33.2v114.7Z"/>
        <path class="cls-1" d="m788.06,269.07h-289.38v-40.22l196.37.13h1.98c17.89.53,72.38,29.79,91.02,40.09Z"/>
        <path class="cls-1" d="m137.51,298.7v112.71c0,12.86-.51,22.29-1.52,28.3-1.01,6-2.69,11.11-5.03,15.32-3.43,6.39-8.48,11.22-15.14,14.5-6.66,3.27-14.75,4.91-24.26,4.91-12,0-21.61-3-28.82-9-7.21-6-11.83-14.81-13.86-26.42l26.54-12.63c.62,5.38,2.01,9.43,4.15,12.16,2.14,2.73,5.09,4.09,8.83,4.09,4.68,0,7.91-1.7,9.7-5.09,1.79-3.39,2.69-10.97,2.69-22.74v-116.1h36.71Z"/>
        <path class="cls-1" d="m290.18,469.87h-32.27l.47-16.49c-4.52,7.25-9.96,12.57-16.31,15.96-6.35,3.39-14.09,5.09-23.21,5.09-15.2,0-27.46-5.65-36.77-16.95-9.32-11.3-13.97-26.23-13.97-44.78s4.58-34.39,13.74-45.19c9.16-10.8,21.88-16.19,38.18-16.19,8.5,0,15.96,1.91,22.39,5.73,6.43,3.82,11.83,9.51,16.19,17.07v-18.94h31.57v114.7Zm-30.4-57.53c0-10.29-2.59-18.43-7.78-24.44-5.18-6-12.18-9-20.99-9s-16.16,2.98-21.34,8.94c-5.18,5.96-7.78,14.13-7.78,24.5s2.55,18.44,7.66,24.2c5.1,5.77,12.18,8.65,21.22,8.65s16.33-2.88,21.4-8.65c5.07-5.77,7.6-13.84,7.6-24.2Z"/>
        <path class="cls-1" d="m314.13,449.76l25.61-13.21c.86,4.44,3.16,7.95,6.9,10.52,3.74,2.57,8.38,3.86,13.91,3.86s9.74-.99,12.86-2.98c3.12-1.99,4.68-4.74,4.68-8.24,0-5.53-5.54-10.17-16.6-13.91-3.43-1.17-6.16-2.14-8.18-2.92-13.49-5.07-22.82-10.17-28-15.32-5.18-5.14-7.78-11.5-7.78-19.06,0-11.22,4.4-20.3,13.21-27.24,8.81-6.94,20.42-10.41,34.84-10.41,10.29,0,19.19,2.07,26.72,6.2,7.52,4.13,13,9.98,16.43,17.54l-24.44,12.16c-1.33-4.29-3.62-7.54-6.9-9.76-3.27-2.22-7.37-3.33-12.28-3.33s-8.89,1.01-11.93,3.04c-3.04,2.03-4.56,4.68-4.56,7.95,0,5.69,7.56,10.99,22.68,15.9,1.79.55,3.16.98,4.09,1.29,12.55,4.13,21.47,8.94,26.78,14.44,5.3,5.5,7.95,12.49,7.95,20.99,0,11.38-4.4,20.42-13.21,27.13-8.81,6.7-20.7,10.06-35.66,10.06-11.85,0-21.96-2.2-30.34-6.61-8.38-4.4-13.97-10.42-16.78-18.06Z"/>
        <g>
          <path class="cls-1" d="m470.01,294.31c-3.86-3.78-8.47-5.67-13.85-5.67s-9.86,1.91-13.68,5.73c-3.82,3.82-5.73,8.38-5.73,13.68s1.91,9.78,5.73,13.67c3.82,3.9,8.38,5.85,13.68,5.85s10-1.91,13.85-5.73c3.86-3.81,5.79-8.42,5.79-13.79s-1.92-9.96-5.79-13.74Z"/>
          <rect class="cls-1" x="439.68" y="355.17" width="33.2" height="114.7"/>
        </g>
        <path class="cls-1" d="m510.5,469.87v-181.23h31.92v65.36c0,3.59-.14,7.15-.41,10.7-.27,3.55-.64,7-1.11,10.35,5.46-8.26,11.38-14.28,17.77-18.06,6.39-3.78,13.72-5.67,21.98-5.67,16.37,0,29.13,5.4,38.29,16.19,9.16,10.8,13.74,25.86,13.74,45.19s-4.64,33.58-13.91,44.84c-9.28,11.26-21.48,16.9-36.6,16.9-9.12,0-16.86-1.7-23.21-5.09-6.35-3.39-11.79-8.71-16.31-15.96l.23,16.49h-32.39Zm30.4-57.53c0,10.37,2.55,18.44,7.66,24.2,5.1,5.77,12.22,8.65,21.34,8.65s16.23-2.88,21.34-8.65c5.1-5.77,7.66-13.84,7.66-24.2s-2.59-18.53-7.78-24.5c-5.18-5.96-12.34-8.94-21.46-8.94s-15.8,3-20.99,9c-5.18,6-7.78,14.15-7.78,24.44Z"/>
        <path class="cls-1" d="m773.9,420.77h-86.17c1.32,8.26,4.33,14.44,9,18.53,4.68,4.09,11.03,6.14,19.06,6.14,6.08,0,11.32-1.17,15.73-3.51,4.4-2.34,8.09-5.88,11.05-10.64l26.89,13.45c-6.24,10.06-13.8,17.52-22.68,22.39-8.89,4.87-19.45,7.31-31.69,7.31-18.55,0-33.25-5.53-44.08-16.6-10.84-11.07-16.25-25.96-16.25-44.66s5.67-32.81,17.01-44.43c11.34-11.61,25.86-17.42,43.55-17.42s32.66,5.44,43.26,16.31c10.6,10.87,15.9,25.7,15.9,44.49,0,1.01-.04,2.12-.12,3.33-.08,1.21-.23,2.98-.47,5.32Zm-32.97-20.11c-.94-7.25-3.57-12.72-7.89-16.43-4.33-3.7-10.23-5.55-17.71-5.55s-13.47,1.85-17.95,5.55c-4.48,3.7-7.35,9.18-8.59,16.43h52.15Z"/>
        <path class="cls-1" d="m803.22,453.39c0-5.61,1.97-10.41,5.9-14.38,3.94-3.98,8.67-5.96,14.21-5.96s10.27,1.99,14.21,5.96c3.94,3.98,5.9,8.77,5.9,14.38s-1.95,10.23-5.85,14.09c-3.9,3.86-8.65,5.79-14.26,5.79s-10.27-1.95-14.21-5.85c-3.94-3.9-5.9-8.57-5.9-14.03Z"/>
        <path class="cls-2" d="m477.24,208.88s107.39-24.7,111.67-154.26c0,0-8.71-49.45-53.86-27.83-18.46,8.84-31.41,23.43-37.36,39.89-6.49,17.96-13.58,47.54-12.33,89.38,0,0,1.51,25.18-13.24,13.7-4.09-3.18-6.77-7.31-8.19-11.71-4.96-15.29-15.15-58.65,6.91-109.66,7.4-17.12,21.8-32.14,41.66-40.99,19.83-8.83,47.02-12.91,76.42,6.09,0,0,57.37,38.96,8.1,109.28-49.27,70.33-76.59,73.15-97.79,86.1-21.21,12.95-21.97,0-21.97,0Z"/>
        <path class="cls-2" d="m453.5,179.5s-11.42-50.56-46.49-92.69c-35.07-42.13-92.15-45.37-92.15-45.37-7.1-.23-38.34-.6-64.08,17.93-15.84,11.4-22.25,24.68-24.82,31.33-.94,2.49-10.89,30.56,12.68,53.81,16.05,15.84,53.65,21.7,56.66,22.25,15.53,2.81,64.77,10.9,102.73,8.2,0,0,40.78-3.92,26.1,21.7,0,0-4.89,12.63-101.94,0,0,0-72.79-4.34-115.89-55.81-12.48-14.9-17.95-33.01-14.55-50.7,4.25-22.08,19.9-50.68,70.09-62.98,87.26-21.39,142.72,48.61,142.72,48.61,0,0,66.87,71.3,48.93,103.71Z"/>
        <path class="cls-2" d="m345.31,217.14c-2.64-.15-5.21-.57-7.73-1.21-67.58-17.31-145.53-19.52-145.53-19.52-36.6,2.32-68.82,12.88-94.47,25.36l-46.89-.03c-4.01,0-6,1.98-6,5.98v28.95c-8.94,15.49-17.43,19.24-21.5,19.9-6.58,1.06-13.07-2.11-15.92-6.93-24.29-41.14,17.27-66.97,50.11-80.19,18.17-7.31,38.16-11.39,58.5-12.06,112.3-3.66,205.19,20.65,226.99,26.89,3.45.98,6.73,2.3,9.71,3.98,16.49,9.28,1,9.35-7.28,8.88Z"/>
        <path class="cls-2" d="m513.15,211.94s5.63,17.06,72.15,3.47c50.26-10.27,112.89,7.18,140.5,16.32,8.39,2.78,16.41,6.19,24.03,10.14l63.13,32.7s22.46,15.4,21.3-4.37c-1.17-19.77-38.11-59.91-95.78-74.36-29.51-7.39-58.49-9.08-79.74-8.96-17.75.1-34.89,2.49-51.03,6.76-21.13,5.6-58.36,14.48-94.56,18.29Z"/>
        <path class="cls-1" d="m412.3,228.79v40.28H90.26l-33.68-.03c-3.49,0-6.32-2.84-6.32-6.33v-27.93c0-4.17,2.05-6.21,6.21-6.21l355.83.24Z"/>
        <g>
          <path class="cls-1" d="m176.85,540.67c0-4.68-.08-8.7-.33-12.39h6.32l.33,7.88h.25c1.81-5.33,6.24-8.7,11.08-8.7.74,0,1.31.08,1.97.16v6.81c-.74-.16-1.48-.16-2.46-.16-5.09,0-8.7,3.78-9.68,9.19-.16.99-.25,2.22-.25,3.37v21.18h-7.22v-27.33Z"/>
          <path class="cls-1" d="m206.89,549.45c.16,9.77,6.32,13.79,13.62,13.79,5.17,0,8.37-.9,11-2.05l1.31,5.17c-2.54,1.15-6.98,2.54-13.3,2.54-12.23,0-19.53-8.13-19.53-20.11s7.06-21.34,18.63-21.34c13.05,0,16.42,11.33,16.42,18.63,0,1.48-.08,2.54-.25,3.37h-27.91Zm21.18-5.17c.08-4.51-1.89-11.65-10.01-11.65-7.39,0-10.51,6.65-11.08,11.65h21.09Z"/>
          <path class="cls-1" d="m277.96,562.18c0,9.19-1.89,14.69-5.66,18.22-3.94,3.53-9.52,4.76-14.53,4.76s-10.01-1.15-13.21-3.28l1.81-5.58c2.63,1.72,6.73,3.2,11.65,3.2,7.39,0,12.8-3.86,12.8-13.95v-4.35h-.16c-2.13,3.69-6.48,6.65-12.64,6.65-9.85,0-16.91-8.37-16.91-19.37,0-13.46,8.78-21.01,17.97-21.01,6.89,0,10.59,3.53,12.39,6.81h.16l.25-5.99h6.4c-.25,2.79-.33,6.07-.33,10.83v23.06Zm-7.22-18.22c0-1.23-.08-2.3-.41-3.2-1.31-4.27-4.76-7.71-10.09-7.71-6.89,0-11.82,5.83-11.82,15.02,0,7.8,4.02,14.28,11.74,14.28,4.51,0,8.54-2.79,10.01-7.39.41-1.23.58-2.63.58-3.86v-7.14Z"/>
          <path class="cls-1" d="m317.77,558.48c0,3.45.16,6.81.58,9.52h-6.48l-.57-5.01h-.25c-2.22,3.12-6.48,5.91-12.15,5.91-8.04,0-12.15-5.66-12.15-11.41,0-9.6,8.54-14.86,23.88-14.77v-.82c0-3.2-.9-9.19-9.03-9.11-3.78,0-7.63,1.07-10.42,2.96l-1.64-4.84c3.28-2.05,8.13-3.45,13.13-3.45,12.15,0,15.1,8.29,15.1,16.17v14.86Zm-6.98-10.75c-7.88-.16-16.83,1.23-16.83,8.95,0,4.76,3.12,6.89,6.73,6.89,5.25,0,8.62-3.28,9.77-6.65.25-.82.33-1.64.33-2.3v-6.89Z"/>
          <path class="cls-1" d="m329.42,509.73h7.22v58.27h-7.22v-58.27Z"/>
          <path class="cls-1" d="m384.74,547.81c0,14.69-10.26,21.09-19.78,21.09-10.67,0-19.04-7.88-19.04-20.44,0-13.21,8.78-21.01,19.7-21.01s19.12,8.29,19.12,20.35Zm-31.44.41c0,8.7,4.92,15.27,11.98,15.27s12.07-6.48,12.07-15.43c0-6.73-3.37-15.18-11.9-15.18s-12.15,7.88-12.15,15.35Z"/>
          <path class="cls-1" d="m445.47,509.73v48.01c0,3.53.16,7.55.33,10.26h-6.4l-.33-6.89h-.25c-2.13,4.43-6.89,7.8-13.38,7.8-9.6,0-17.07-8.13-17.07-20.19-.08-13.21,8.21-21.26,17.81-21.26,6.16,0,10.18,2.87,11.98,5.99h.16v-23.72h7.14Zm-7.14,34.72c0-.9-.08-2.13-.33-3.04-1.07-4.51-5.01-8.29-10.42-8.29-7.47,0-11.9,6.57-11.9,15.27,0,8.04,4.02,14.69,11.74,14.69,4.84,0,9.27-3.28,10.59-8.62.25-.98.33-1.97.33-3.12v-6.89Z"/>
          <path class="cls-1" d="m461.56,549.45c.16,9.77,6.32,13.79,13.62,13.79,5.17,0,8.37-.9,11-2.05l1.31,5.17c-2.54,1.15-6.98,2.54-13.3,2.54-12.23,0-19.53-8.13-19.53-20.11s7.06-21.34,18.63-21.34c13.05,0,16.42,11.33,16.42,18.63,0,1.48-.08,2.54-.25,3.37h-27.91Zm21.18-5.17c.08-4.51-1.89-11.65-10.01-11.65-7.39,0-10.51,6.65-11.08,11.65h21.09Z"/>
          <path class="cls-1" d="m498.65,509.73h7.22v58.27h-7.22v-58.27Z"/>
          <path class="cls-1" d="m563.74,566.61c-1.89.9-6.07,2.3-11.41,2.3-11.98,0-19.78-8.13-19.78-20.27s8.37-21.18,21.34-21.18c4.27,0,8.04,1.07,10.01,2.13l-1.64,5.5c-1.72-.9-4.43-1.89-8.37-1.89-9.11,0-14.04,6.81-14.04,15.02,0,9.19,5.91,14.86,13.79,14.86,4.1,0,6.81-.98,8.86-1.89l1.23,5.42Z"/>
          <path class="cls-1" d="m580.23,517.11c0,2.46-1.72,4.43-4.6,4.43-2.63,0-4.35-1.97-4.35-4.43s1.81-4.51,4.51-4.51,4.43,1.97,4.43,4.51Zm-8.04,50.89v-39.73h7.22v39.73h-7.22Z"/>
          <path class="cls-1" d="m595.42,549.45c.16,9.77,6.32,13.79,13.62,13.79,5.17,0,8.37-.9,11-2.05l1.31,5.17c-2.54,1.15-6.98,2.54-13.3,2.54-12.23,0-19.53-8.13-19.53-20.11s7.06-21.34,18.63-21.34c13.05,0,16.42,11.33,16.42,18.63,0,1.48-.08,2.54-.25,3.37h-27.91Zm21.18-5.17c.08-4.51-1.89-11.65-10.01-11.65-7.39,0-10.51,6.65-11.08,11.65h21.09Z"/>
          <path class="cls-1" d="m632.51,509.73h7.22v58.27h-7.22v-58.27Z"/>
          <path class="cls-1" d="m687.83,547.81c0,14.69-10.26,21.09-19.78,21.09-10.67,0-19.04-7.88-19.04-20.44,0-13.21,8.78-21.01,19.7-21.01s19.12,8.29,19.12,20.35Zm-31.44.41c0,8.7,4.92,15.27,11.98,15.27s12.07-6.48,12.07-15.43c0-6.73-3.37-15.18-11.9-15.18s-12.15,7.88-12.15,15.35Z"/>
        </g>
      </g>
    </g>
  </g>
</svg>